<svg xmlns="http://www.w3.org/2000/svg" viewBox="0 0 512 512" fill="none">
  <defs>
    <linearGradient id="bg" x1="0" y1="0" x2="512" y2="512" gradientUnits="userSpaceOnUse">
      <stop offset="0%" stop-color="#0D9488"/>
      <stop offset="100%" stop-color="#0F766E"/>
    </linearGradient>
  </defs>
  <rect width="512" height="512" rx="96" fill="url(#bg)"/>
  <g transform="translate(256,256)">
    <!-- Head silhouette outline -->
    <path d="M-8,-140 C-8,-140 -60,-120 -72,-60 C-84,0 -70,40 -52,64 C-40,80 -20,90 0,96" 
          stroke="white" stroke-width="6" fill="none" stroke-linecap="round"/>
    <path d="M8,-140 C8,-140 60,-120 72,-60 C84,0 70,40 52,64 C40,80 20,90 0,96"
          stroke="white" stroke-width="6" fill="none" stroke-linecap="round"/>
    <path d="M0,96 C0,96 -20,100 -32,108 C-38,112 -40,118 -40,124 C-40,130 -36,136 -28,140"
          stroke="white" stroke-width="6" fill="none" stroke-linecap="round"/>
    <!-- Psi symbol -->
    <line x1="0" y1="-110" x2="0" y2="70" stroke="white" stroke-width="8" stroke-linecap="round"/>
    <path d="M-44,-50 C-44,-80 -16,-100 0,-100 C16,-100 44,-80 44,-50 C44,-20 20,0 0,10"
          stroke="white" stroke-width="8" fill="none" stroke-linecap="round"/>
  </g>
</svg>